<?xml version="1.0" standalone="no"?>
<!DOCTYPE svg PUBLIC "-//W3C//DTD SVG 20010904//EN"
 "http://www.w3.org/TR/2001/REC-SVG-20010904/DTD/svg10.dtd">
<svg version="1.0" xmlns="http://www.w3.org/2000/svg"
 width="400pt" height="132.0600272851296pt" viewBox="0 0 307.000000 76.000000"
 preserveAspectRatio="xMidYMid meet">
<metadata>
Created by potrace 1.16, written by Peter Selinger 2001-2019
</metadata>
<g transform="translate(0.000000,76.000000) scale(0.100000,-0.100000)"
fill="#FFFFFF" stroke="none">
<path d="M2593 753 c-36 -5 -45 -28 -13 -36 19 -5 20 -14 20 -246 0 -230 -1
-241 -20 -251 -41 -22 -19 -30 80 -30 99 0 121 8 80 30 -17 9 -20 21 -20 85 0
68 2 75 20 75 13 0 34 -22 65 -67 45 -67 54 -93 35 -93 -5 0 -10 -7 -10 -15 0
-12 17 -15 95 -15 102 0 112 6 70 43 -13 12 -52 63 -85 112 l-61 90 61 58 c33
31 67 57 75 57 8 0 15 7 15 15 0 12 -18 15 -100 15 -99 0 -121 -8 -80 -30 11
-6 20 -20 20 -30 0 -26 -74 -100 -100 -100 -19 0 -20 7 -20 170 l0 170 -47 -2
c-27 0 -63 -3 -80 -5z"/>
<path d="M20 718 c0 -7 9 -19 20 -26 19 -12 20 -23 20 -232 0 -209 -1 -220
-20 -232 -41 -26 -23 -38 55 -38 41 0 75 3 75 6 0 4 -11 17 -25 30 -25 23 -25
23 -25 210 0 103 2 185 5 182 3 -3 34 -86 68 -184 l63 -179 34 -3 35 -3 63
174 c35 95 68 180 73 188 5 9 9 -56 9 -173 0 -175 -1 -189 -20 -208 -11 -11
-20 -24 -20 -30 0 -6 40 -10 100 -10 55 0 100 4 100 9 0 5 -10 15 -22 23 -23
15 -23 18 -23 238 0 220 0 223 23 238 12 8 22 18 22 23 0 5 -42 9 -94 9 l-94
0 -58 -161 c-44 -123 -60 -156 -67 -144 -5 10 -30 81 -56 159 l-48 141 -96 3
c-74 2 -97 0 -97 -10z"/>
<path d="M1130 716 c0 -7 9 -16 20 -19 19 -5 20 -14 20 -237 0 -223 -1 -232
-20 -237 -11 -3 -20 -12 -20 -20 0 -12 26 -14 173 -11 150 3 176 6 206 23 51
30 72 64 73 119 1 56 -20 91 -75 121 l-35 21 37 21 c71 41 91 135 41 188 -33
35 -94 45 -264 45 -126 0 -156 -3 -156 -14z m307 -62 c22 -22 25 -32 20 -72
-7 -64 -40 -92 -108 -92 l-49 0 0 95 0 95 55 0 c47 0 60 -4 82 -26z m-3 -235
c23 -18 26 -28 26 -78 0 -77 -25 -103 -102 -105 l-53 -1 -3 103 -3 102 54 0
c40 0 61 -6 81 -21z"/>
<path d="M1740 567 c-63 -21 -65 -23 -68 -59 -3 -37 -3 -38 32 -38 27 0 36 5
42 23 10 36 35 57 65 57 38 0 59 -33 59 -92 0 -47 0 -47 -37 -53 -111 -17
-159 -42 -180 -93 -37 -90 61 -162 160 -117 18 8 43 22 56 32 24 18 24 17 19
-10 l-5 -27 73 0 c56 0 74 3 74 14 0 7 -9 16 -20 19 -19 5 -20 14 -21 134 0
71 -5 143 -12 163 -24 69 -117 88 -237 47z"/>
<path d="M2311 579 c-13 -5 -36 -18 -52 -30 l-29 -20 0 25 c0 26 -1 26 -75 26
-78 0 -96 -12 -55 -38 19 -11 20 -23 20 -157 0 -133 -2 -147 -20 -162 -11 -10
-20 -21 -20 -25 0 -5 43 -8 95 -8 75 0 95 3 95 14 0 8 -7 16 -15 20 -12 4 -15
29 -15 136 0 117 2 132 20 150 27 27 65 26 84 -2 12 -17 16 -50 16 -145 0
-112 -2 -124 -20 -135 -44 -28 -23 -38 75 -38 99 0 110 5 75 40 -18 18 -20 33
-20 144 0 67 -5 137 -11 155 -18 51 -86 75 -148 50z"/>
<path d="M670 569 c0 -6 9 -18 20 -27 12 -10 43 -80 76 -177 31 -88 62 -165
70 -171 11 -9 8 -19 -15 -56 -34 -53 -55 -64 -87 -43 -42 27 -56 20 -52 -27
l3 -43 54 1 c51 0 57 3 91 41 23 27 69 113 129 247 52 112 104 215 117 227 13
12 24 26 24 31 0 4 -36 8 -80 8 -44 0 -80 -3 -80 -8 0 -4 9 -15 20 -25 11 -9
20 -26 20 -36 0 -23 -71 -201 -80 -201 -7 0 -70 190 -70 213 0 9 9 21 20 27
41 22 19 30 -80 30 -65 0 -100 -4 -100 -11z"/>
</g>
</svg>
