<svg xmlns="http://www.w3.org/2000/svg" xmlns:svg="http://www.w3.org/2000/svg" id="svg2" width="646.039" height="255.134" version="1.1" viewBox="0 0 605.662 239.188" xml:space="preserve"><metadata id="metadata8"/><defs id="defs6"><clipPath id="clipPath16" clipPathUnits="userSpaceOnUse"><path id="path18" d="M 0,1008.912 H 774.066 V 0 H 0 Z"/></clipPath><clipPath id="clipPath76" clipPathUnits="userSpaceOnUse"><path id="path78" d="M 0,1008.912 H 774.066 V 0 H 0 Z"/></clipPath></defs><g id="g10" transform="matrix(1.25,0,0,-1.25,-102.70148,297.75535)"><g style="font-style:normal;font-weight:400;font-size:30px;line-height:1.25;font-family:sans-serif;letter-spacing:0;word-spacing:0;fill:#fff;fill-opacity:1;stroke:none;stroke-width:.75" id="text3865" aria-label="Parapheur" transform="scale(1,-1)"><path style="font-style:normal;font-variant:normal;font-weight:400;font-stretch:normal;font-size:55.00000381px;font-family:Bariol;-inkscape-font-specification:'Bariol, Normal';font-variant-ligatures:normal;font-variant-caps:normal;font-variant-numeric:normal;font-feature-settings:normal;text-align:start;writing-mode:lr-tb;text-anchor:start;fill:#fff;fill-opacity:1;stroke-width:.75" id="path833" d="m 338.85451,-107.15639 h 8.525 c 4.4,0 7.26,2.475 7.26,7.315004 0,4.785001 -2.805,7.370001 -7.26,7.370001 h -8.525 z m 0,18.095005 h 9.075 c 5.995,0 10.505,-3.575 10.505,-10.780001 0,-7.315004 -4.62,-10.725004 -10.505,-10.725004 h -10.945 c -1.045,0 -1.87,0.825 -1.87,1.87 v 33.715006 c 0,1.045 0.825,1.87 1.87,1.87 1.045,0 1.87,-0.825 1.87,-1.87 z"/><path style="font-style:normal;font-variant:normal;font-weight:400;font-stretch:normal;font-size:55.00000381px;font-family:Bariol;-inkscape-font-specification:'Bariol, Normal';font-variant-ligatures:normal;font-variant-caps:normal;font-variant-numeric:normal;font-feature-settings:normal;text-align:start;writing-mode:lr-tb;text-anchor:start;fill:#fff;fill-opacity:1;stroke-width:.75" id="path835" d="m 372.371,-95.991386 c 4.015,0 6.49,2.310001 6.49,6.050001 v 1.485 h -7.755 c -5.94001,0 -9.62501,2.915 -9.62501,7.755001 0,5.06 3.685,7.865 9.51501,7.865 3.3,0 6.49,-1.375 7.865,-3.96 v 1.98 c 0,0.935 0.77,1.705 1.705,1.705 0.935,0 1.705,-0.77 1.705,-1.705 v -15.125001 c 0,-5.61 -3.52,-9.350001 -9.9,-9.350001 -4.62001,0 -7.59001,1.925 -9.13001,4.345001 -0.165,0.275 -0.275,0.55 -0.275,0.935 0,0.88 0.715,1.595 1.595,1.595 0.495,0 0.88,-0.165 1.43,-0.77 1.705,-1.925 3.46501,-2.805001 6.38001,-2.805001 z m -1.045,19.965002 c -4.29001,0 -6.27001,-1.815 -6.27001,-4.675 0,-3.190001 2.475,-4.675001 6.05001,-4.675001 h 7.755 v 2.31 c 0,4.675001 -3.685,7.040001 -7.535,7.040001 z"/><path style="font-style:normal;font-variant:normal;font-weight:400;font-stretch:normal;font-size:55.00000381px;font-family:Bariol;-inkscape-font-specification:'Bariol, Normal';font-variant-ligatures:normal;font-variant-caps:normal;font-variant-numeric:normal;font-feature-settings:normal;text-align:start;writing-mode:lr-tb;text-anchor:start;fill:#fff;fill-opacity:1;stroke-width:.75" id="path837" d="m 392.37982,-97.201386 c 0,-0.99 -0.77,-1.76 -1.76,-1.76 -0.99,0 -1.76,0.77 -1.76,1.76 v 22.330002 c 0,0.99 0.77,1.76 1.76,1.76 0.99,0 1.76,-0.77 1.76,-1.76 v -12.320001 c 0,-5.06 2.58501,-8.580001 7.64501,-8.580001 0.935,0 1.705,-0.77 1.705,-1.705 0,-0.935 -0.77,-1.705 -1.705,-1.705 -3.795,0 -6.54501,1.87 -7.64501,4.400001 z"/><path style="font-style:normal;font-variant:normal;font-weight:400;font-stretch:normal;font-size:55.00000381px;font-family:Bariol;-inkscape-font-specification:'Bariol, Normal';font-variant-ligatures:normal;font-variant-caps:normal;font-variant-numeric:normal;font-feature-settings:normal;text-align:start;writing-mode:lr-tb;text-anchor:start;fill:#fff;fill-opacity:1;stroke-width:.75" id="path839" d="m 414.48038,-95.991386 c 4.015,0 6.49,2.310001 6.49,6.050001 v 1.485 h -7.755 c -5.94,0 -9.625,2.915 -9.625,7.755001 0,5.06 3.685,7.865 9.515,7.865 3.3,0 6.49,-1.375 7.865,-3.96 v 1.98 c 0,0.935 0.77,1.705 1.705,1.705 0.935,0 1.705,-0.77 1.705,-1.705 v -15.125001 c 0,-5.61 -3.52,-9.350001 -9.9,-9.350001 -4.62,0 -7.59,1.925 -9.13,4.345001 -0.165,0.275 -0.275,0.55 -0.275,0.935 0,0.88 0.715,1.595 1.595,1.595 0.495,0 0.88,-0.165 1.43,-0.77 1.705,-1.925 3.465,-2.805001 6.38,-2.805001 z m -1.045,19.965002 c -4.29,0 -6.27,-1.815 -6.27,-4.675 0,-3.190001 2.475,-4.675001 6.05,-4.675001 h 7.755 v 2.31 c 0,4.675001 -3.685,7.040001 -7.535,7.040001 z"/><path style="font-style:normal;font-variant:normal;font-weight:400;font-stretch:normal;font-size:55.00000381px;font-family:Bariol;-inkscape-font-specification:'Bariol, Normal';font-variant-ligatures:normal;font-variant-caps:normal;font-variant-numeric:normal;font-feature-settings:normal;text-align:start;writing-mode:lr-tb;text-anchor:start;fill:#fff;fill-opacity:1;stroke-width:.75" id="path841" d="m 432.7292,-98.961386 c -0.935,0 -1.76,0.77 -1.76,1.76 v 32.945003 c 0,0.935 0.825,1.76 1.76,1.76 0.935,0 1.76,-0.825 1.76,-1.76 v -12.430001 c 1.155,1.87 3.795,3.85 7.48,3.85 7.15,0 11.495,-4.235 11.495,-13.255001 0,-9.02 -4.345,-13.200001 -11.495,-13.200001 -3.685,0 -6.435,1.98 -7.48,3.850001 v -1.760001 c 0,-0.99 -0.825,-1.76 -1.76,-1.76 z m 1.65,12.870001 c 0,-7.15 3.41,-10.010001 7.48,-10.010001 5.06,0 8.03,3.135001 8.03,10.010001 0,6.875001 -2.86,10.065001 -7.92,10.065001 -4.29,0 -7.59,-2.97 -7.59,-10.065001 z"/><path style="font-style:normal;font-variant:normal;font-weight:400;font-stretch:normal;font-size:55.00000381px;font-family:Bariol;-inkscape-font-specification:'Bariol, Normal';font-variant-ligatures:normal;font-variant-caps:normal;font-variant-numeric:normal;font-feature-settings:normal;text-align:start;writing-mode:lr-tb;text-anchor:start;fill:#fff;fill-opacity:1;stroke-width:.75" id="path843" d="m 469.84131,-99.291386 c -3.575,0 -6.27,1.76 -7.315,3.850001 v -15.510005 c 0,-0.99 -0.77,-1.76 -1.76,-1.76 -0.99,0 -1.76,0.77 -1.76,1.76 v 36.080006 c 0,0.99 0.77,1.76 1.76,1.76 0.99,0 1.76,-0.77 1.76,-1.76 v -13.585001 c 0,-4.4 1.87,-7.700001 7.315,-7.700001 5.335,0 6.6,2.970001 6.6,7.315001 v 13.970001 c 0,0.99 0.77,1.76 1.76,1.76 0.99,0 1.76,-0.77 1.76,-1.76 v -14.685001 c 0,-4.675 -1.65,-9.735001 -10.12,-9.735001 z"/><path style="font-style:normal;font-variant:normal;font-weight:400;font-stretch:normal;font-size:55.00000381px;font-family:Bariol;-inkscape-font-specification:'Bariol, Normal';font-variant-ligatures:normal;font-variant-caps:normal;font-variant-numeric:normal;font-feature-settings:normal;text-align:start;writing-mode:lr-tb;text-anchor:start;fill:#fff;fill-opacity:1;stroke-width:.75" id="path845" d="m 484.96374,-86.091385 c 0,9.240001 4.565,13.255001 11.88,13.255001 4.895,0 7.755,-2.255 8.58,-3.08 0.33,-0.33 0.605,-0.66 0.605,-1.265 0,-0.88 -0.715,-1.595 -1.595,-1.595 -0.44,0 -0.66,0.11 -0.99,0.33 -1.54,1.155 -3.41,2.365 -6.6,2.365 -5.17,0 -8.305,-3.52 -8.305,-8.965001 h 16.06 c 2.2,0 2.2,-1.925 2.2,-3.52 0,-3.74 -1.705,-10.725001 -10.505,-10.725001 -7.15,0 -11.33,4.730001 -11.33,13.200001 z m 18.37,-2.035 h -14.795 c 0.33,-4.895 2.97,-7.975001 7.755,-7.975001 5.665,0 7.04,4.015001 7.04,7.975001 z"/><path style="font-style:normal;font-variant:normal;font-weight:400;font-stretch:normal;font-size:55.00000381px;font-family:Bariol;-inkscape-font-specification:'Bariol, Normal';font-variant-ligatures:normal;font-variant-caps:normal;font-variant-numeric:normal;font-feature-settings:normal;text-align:start;writing-mode:lr-tb;text-anchor:start;fill:#fff;fill-opacity:1;stroke-width:.75" id="path847" d="m 513.49757,-98.961386 c -0.99,0 -1.76,0.77 -1.76,1.76 v 14.355001 c 0,5.225001 1.76,10.010001 10.23,10.010001 8.525,0 10.23,-4.785 10.23,-10.010001 v -14.355001 c 0,-0.99 -0.77,-1.76 -1.705,-1.76 -0.99,0 -1.815,0.77 -1.815,1.76 v 14.355001 c 0,3.575001 -1.155,6.655001 -6.71,6.655001 -5.555,0 -6.71,-3.08 -6.71,-6.655001 v -14.355001 c 0,-0.99 -0.825,-1.76 -1.76,-1.76 z"/><path style="font-style:normal;font-variant:normal;font-weight:400;font-stretch:normal;font-size:55.00000381px;font-family:Bariol;-inkscape-font-specification:'Bariol, Normal';font-variant-ligatures:normal;font-variant-caps:normal;font-variant-numeric:normal;font-feature-settings:normal;text-align:start;writing-mode:lr-tb;text-anchor:start;fill:#fff;fill-opacity:1;stroke-width:.75" id="path849" d="m 542.34077,-97.201386 c 0,-0.99 -0.77,-1.76 -1.76,-1.76 -0.99,0 -1.76,0.77 -1.76,1.76 v 22.330002 c 0,0.99 0.77,1.76 1.76,1.76 0.99,0 1.76,-0.77 1.76,-1.76 v -12.320001 c 0,-5.06 2.585,-8.580001 7.645,-8.580001 0.935,0 1.705,-0.77 1.705,-1.705 0,-0.935 -0.77,-1.705 -1.705,-1.705 -3.795,0 -6.545,1.87 -7.645,4.400001 z"/></g><g id="g4153" transform="matrix(1.5207255,0,0,1.5634901,-12.915923,24.439533)"><path style="fill:#fff;fill-opacity:1;fill-rule:nonzero;stroke:none" id="path206" d="m 169.11968,79.730378 -17.731,31.572002 V 71.371378 c 0,-1.461 -1.273,-2.679 -2.8,-2.679 -1.528,0 -2.8,1.218 -2.8,2.679 v 50.563002 c 0,1.461 1.272,2.678 2.8,2.678 1.272,0 2.121,-0.73 2.545,-1.542 l 20.531,-36.766002 20.616,36.766002 c 0.339,0.568 1.018,1.542 2.545,1.542 1.527,0 2.8,-1.217 2.8,-2.678 V 71.371378 c 0,-1.461 -1.273,-2.679 -2.8,-2.679 -1.527,0 -2.8,1.218 -2.8,2.679 v 39.931002 l -17.816,-31.572002 c -0.594,-1.055 -1.527,-1.542 -2.545,-1.542 -0.849,0 -1.951,0.405 -2.545,1.542"/><path style="fill:#fff;fill-opacity:1;fill-rule:nonzero;stroke:none" id="path210" d="m 231.56108,83.382678 v 3.409 h -11.962 c -5.515,0 -9.332,-2.191 -9.332,-6.899 0,-4.22 3.054,-6.899 9.671,-6.899 5.939,0 11.623,3.491 11.623,10.389 m -19.852,14.934002 c -0.848,-0.893 -1.442,-1.136 -2.206,-1.136 -1.357,0 -2.461,1.055 -2.461,2.353 0,0.568 0.17,0.974 0.425,1.38 2.375,3.571 6.957,6.411 14.083,6.411 9.841,0 15.271,-5.518 15.271,-13.796002 v -22.32 c 0,-1.38 -1.188,-2.516 -2.63,-2.516 -1.443,0 -2.63,1.136 -2.63,2.516 v 2.921 c -2.121,-3.814 -7.041,-5.843 -12.132,-5.843 -8.993,0 -14.677,4.139 -14.677,11.606 0,7.142 5.684,11.444 14.847,11.444 h 11.962 v 2.192 c 0,5.518002 -3.817,8.927002 -10.011,8.927002 -4.496,0 -7.211,-1.299 -9.841,-4.139"/><path style="fill:#fff;fill-opacity:1;fill-rule:nonzero;stroke:none" id="path214" d="m 268.63528,83.382678 v 3.409 h -11.962 c -5.515,0 -9.332,-2.191 -9.332,-6.899 0,-4.22 3.054,-6.899 9.671,-6.899 5.939,0 11.623,3.491 11.623,10.389 m -19.852,14.934002 c -0.848,-0.893 -1.442,-1.136 -2.206,-1.136 -1.357,0 -2.461,1.055 -2.461,2.353 0,0.568 0.17,0.974 0.425,1.38 2.375,3.571 6.957,6.411 14.083,6.411 9.841,0 15.271,-5.518 15.271,-13.796002 v -22.32 c 0,-1.38 -1.188,-2.516 -2.63,-2.516 -1.443,0 -2.63,1.136 -2.63,2.516 v 2.921 c -2.121,-3.814 -7.041,-5.843 -12.132,-5.843 -8.993,0 -14.677,4.139 -14.677,11.606 0,7.142 5.684,11.444 14.847,11.444 h 11.962 v 2.192 c 0,5.518002 -3.817,8.927002 -10.011,8.927002 -4.496,0 -7.211,-1.299 -9.841,-4.139"/><path style="fill:#fff;fill-opacity:1;fill-rule:nonzero;stroke:none" id="path218" d="m 286.96148,100.66978 c 1.696,3.733 5.938,6.493 11.793,6.493 1.441,0 2.63,-1.137 2.63,-2.515 0,-1.38 -1.189,-2.517 -2.63,-2.517 -7.806,0 -11.793,-5.194 -11.793,-12.661002 v -18.18 c 0,-1.461 -1.187,-2.598 -2.715,-2.598 -1.527,0 -2.715,1.137 -2.715,2.598 v 32.951002 c 0,1.461 1.188,2.598 2.715,2.598 1.528,0 2.715,-1.137 2.715,-2.598 z"/><path style="fill:#fff;fill-opacity:1;fill-rule:nonzero;stroke:none" id="path222" d="m 319.70948,107.32508 c 7.551,0 11.708,-3.814 13.065,-5.6 0.424,-0.568 0.594,-0.974 0.594,-1.542 0,-1.379 -1.103,-2.354 -2.461,-2.354 -0.847,0 -1.442,0.325 -2.036,0.975 -1.272,1.379 -3.562,3.814 -9.162,3.814 -7.806,0 -11.963,-4.789 -11.963,-14.772002 0,-10.145 4.157,-14.852 11.963,-14.852 4.921,0 7.89,2.11 9.841,3.49 0.595,0.405 1.018,0.568 1.612,0.568 1.358,0 2.46,-1.055 2.46,-2.354 0,-0.73 -0.254,-1.299 -1.102,-2.029 -1.867,-1.46 -5.939,-4.382 -12.811,-4.382 -10.944,0 -17.477,6.249 -17.477,19.559 0,13.311002 6.533,19.479002 17.477,19.479002"/><path style="fill:#fff;fill-opacity:1;fill-rule:nonzero;stroke:none" id="path226" d="m 371.12258,92.959878 v -21.67 c 0,-1.461 -1.187,-2.598 -2.715,-2.598 -1.526,0 -2.715,1.137 -2.715,2.598 v 20.614 c 0,6.412002 -1.951,10.795002 -10.18,10.795002 -8.399,0 -11.284,-4.87 -11.284,-11.362002 v -20.047 c 0,-1.461 -1.187,-2.598 -2.714,-2.598 -1.528,0 -2.715,1.137 -2.715,2.598 v 53.241002 c 0,1.461 1.187,2.598 2.715,2.598 1.527,0 2.714,-1.137 2.714,-2.598 v -22.886 c 1.612,3.084 5.769,5.68 11.284,5.68 13.065,0 15.61,-7.467 15.61,-14.365002"/></g><path id="path4599-5" d="m 127.91921,210.49572 c 8.01405,2.42067 17.24742,2.14509 25.3125,0" style="fill:#fff;stroke:#fff;stroke-width:3.8267715;stroke-linecap:round;stroke-linejoin:round;stroke-miterlimit:4;stroke-dasharray:none;stroke-opacity:1"/><path id="path4599-5-4" d="m 134.48289,219.93212 c 3.85718,1.16573 8.3037,1.03204 12.18514,0" style="fill:none;stroke:#fff;stroke-width:3.8267715;stroke-linecap:round;stroke-linejoin:round;stroke-miterlimit:4;stroke-dasharray:none;stroke-opacity:.94117647"/><path style="opacity:1;fill:#fff;fill-opacity:1;stroke:none;stroke-width:3.72487974;stroke-linejoin:round;stroke-miterlimit:4;stroke-dasharray:none;stroke-opacity:1" id="rect4658" d="m 122.01322,202.4795 c 0,0 5.96136,-61.41778 -24.852037,-74.89523 l 38.352027,-65.730654 -0.0102,48.208904 c -1.36147,0.60177 -2.07992,0.95506 -3.27241,2.04077 -0.94222,0.85785 -1.90259,1.80446 -2.60306,3.09307 -0.24685,0.45409 -0.65984,1.24832 -0.80631,1.63979 -0.94764,2.53268 -0.98475,4.626 -0.83353,6.18194 0.0203,0.17763 0.28614,1.5558 0.30424,1.62154 0.46178,1.67835 1.18462,3.01885 2.06384,4.30727 0.16074,0.23554 0.37469,0.49077 0.53898,0.68654 0.60013,0.71512 1.75834,1.70023 2.53379,2.23801 0.19729,0.13682 0.46916,0.30802 0.71533,0.44919 0.40958,0.23489 0.83587,0.44929 1.29746,0.64524 1.49223,0.63346 3.2511,1.04166 5.2029,0.99635 1.28304,-0.0298 2.43062,-0.24722 3.61495,-0.62869 1.50489,-0.48473 2.74315,-1.2443 3.81398,-2.06926 0.52624,-0.40541 1.03531,-0.89844 1.47993,-1.37503 0.69677,-0.7469 1.26804,-1.59323 1.78316,-2.53515 0.4543,-0.83072 0.76258,-1.7059 0.9995,-2.53573 0.27114,-0.94967 0.42615,-1.97176 0.44272,-3.03175 -0.01,-0.91354 -0.067,-1.96753 -0.28396,-2.87967 -0.3659,-1.53809 -0.8649,-2.90696 -1.86937,-4.36953 -0.82636,-1.20323 -1.69064,-2.11303 -3.01134,-3.09289 -0.6345,-0.47075 -1.21404,-0.77932 -2.00294,-1.17727 l 0.0274,-48.413644 37.77296,65.730654 c -30.81325,13.47762 -24.27297,74.89523 -24.27297,74.89523 -10.48689,2.7373 -20.8522,5.65089 -37.12499,0 z"/><circle style="opacity:1;fill:#fff;fill-opacity:1;stroke:none;stroke-width:3.78704906;stroke-linejoin:round;stroke-miterlimit:4;stroke-dasharray:none;stroke-opacity:1" id="path865" cx="140.353" cy="-121.681" r="10.25" transform="scale(1,-1)"/><rect style="opacity:1;fill:#fff;fill-opacity:1;stroke:none;stroke-width:.6799047;stroke-linejoin:round;stroke-miterlimit:4;stroke-dasharray:none;stroke-opacity:.94117647" id="rect871-5" width="4.451" height="57.528" x="138.35" y="-119.626" transform="scale(1,-1)"/></g></svg>